HIERARCHY
ROOT CG
{
	OFFSET 0.000000 0.000000 27.772259
	CHANNELS 6 Xposition Yposition Zposition Xrotation Yrotation Zrotation
	JOINT Pelvis
	{
		OFFSET 0.000000 0.000000 0.000000
		CHANNELS 3 Xrotation Yrotation Zrotation
		JOINT Spine
		{
			OFFSET -0.000017 -10.490843 -0.495483
			CHANNELS 3 Xrotation Yrotation Zrotation
			JOINT Spine1
			{
				OFFSET -0.000010 -22.678980 0.018061
				CHANNELS 3 Xrotation Yrotation Zrotation
				JOINT Spine2
				{
					OFFSET -0.000010 -22.678967 0.018061
					CHANNELS 3 Xrotation Yrotation Zrotation
					JOINT Spine3
					{
						OFFSET -0.000010 -22.678982 0.018059
						CHANNELS 3 Xrotation Yrotation Zrotation
						JOINT Neck
						{
							OFFSET -0.000012 -22.678986 -1.289251
							CHANNELS 3 Xrotation Yrotation Zrotation
							JOINT Neck1
							{
								OFFSET -0.000007 -16.255905 0.012947
								CHANNELS 3 Xrotation Yrotation Zrotation
								JOINT Head
								{
									OFFSET -0.000005 -10.784607 -0.287502
									CHANNELS 3 Xrotation Yrotation Zrotation
									JOINT Jaw01
									{
										OFFSET 0.000031 7.782959 5.073944
										CHANNELS 3 Xrotation Yrotation Zrotation
										JOINT Jaw02
										{
											OFFSET 0.000004 -34.927139 -18.883980
											CHANNELS 3 Xrotation Yrotation Zrotation
											End Site
											{
												OFFSET -0.000170 8.372803 -38.812450
											}
										}
									}
									JOINT Nose
									{
										OFFSET -0.000002 -25.700912 7.222265
										CHANNELS 3 Xrotation Yrotation Zrotation
										End Site
										{
											OFFSET -0.000090 0.641281 -21.715439
										}
									}
									JOINT L_EyeSocket
									{
										OFFSET 7.352326 -19.832718 14.164183
										CHANNELS 3 Xrotation Yrotation Zrotation
										JOINT L_Eye
										{
											OFFSET -0.000868 -0.001053 0.016003
											CHANNELS 3 Xrotation Yrotation Zrotation
											End Site
											{
												OFFSET -0.001505 -0.001846 0.027969
											}
										}
										JOINT L_Eyelid_Top
										{
											OFFSET -0.001004 -0.002625 0.032516
											CHANNELS 3 Xrotation Yrotation Zrotation
											End Site
											{
												OFFSET -0.013218 0.005753 0.024086
											}
										}
										JOINT L_Eyelid_Bottom
										{
											OFFSET -0.001194 -0.002777 0.035381
											CHANNELS 3 Xrotation Yrotation Zrotation
											End Site
											{
												OFFSET -0.010032 0.008636 -0.024754
											}
										}
									}
									JOINT R_EyeSocket
									{
										OFFSET -7.352252 -19.832748 14.164206
										CHANNELS 3 Xrotation Yrotation Zrotation
										JOINT R_Eye
										{
											OFFSET 0.000875 -0.001068 0.015991
											CHANNELS 3 Xrotation Yrotation Zrotation
											End Site
											{
												OFFSET 0.001505 -0.001846 0.027962
											}
										}
										JOINT R_Eyelid_Top
										{
											OFFSET 0.001021 -0.002625 0.032516
											CHANNELS 3 Xrotation Yrotation Zrotation
											End Site
											{
												OFFSET 0.013214 0.005753 0.024078
											}
										}
										JOINT R_Eyelid_Bottom
										{
											OFFSET 0.001170 -0.002762 0.035366
											CHANNELS 3 Xrotation Yrotation Zrotation
											End Site
											{
												OFFSET 0.010029 0.008636 -0.024746
											}
										}
									}
								}
								JOINT Neck_Fat
								{
									OFFSET 0.000044 -9.595100 -17.491512
									CHANNELS 3 Xrotation Yrotation Zrotation
									End Site
									{
										OFFSET -0.000036 15.369423 -0.000007
									}
								}
							}
						}
						JOINT L_Clavicle
						{
							OFFSET 4.567107 -11.666092 -3.750029
							CHANNELS 3 Xrotation Yrotation Zrotation
							JOINT L_UpperArm
							{
								OFFSET 20.725666 -0.000053 -0.000032
								CHANNELS 3 Xrotation Yrotation Zrotation
								JOINT L_Forearm
								{
									OFFSET 5.265112 -0.585754 -20.155697
									CHANNELS 3 Xrotation Yrotation Zrotation
									JOINT L_Hand
									{
										OFFSET 2.653017 -10.877708 -16.383667
										CHANNELS 3 Xrotation Yrotation Zrotation
										JOINT L_Finger0
										{
											OFFSET -4.206146 -4.328911 -5.034346
											CHANNELS 3 Xrotation Yrotation Zrotation
											JOINT L_Finger01
											{
												OFFSET 0.084272 -1.788536 -4.181065
												CHANNELS 3 Xrotation Yrotation Zrotation
												End Site
												{
													OFFSET 3.261885 3.094673 -0.685818
												}
											}
										}
										JOINT L_Finger1
										{
											OFFSET -1.039112 -6.775742 -3.499998
											CHANNELS 3 Xrotation Yrotation Zrotation
											JOINT L_Finger11
											{
												OFFSET 1.320335 -3.040672 -6.425793
												CHANNELS 3 Xrotation Yrotation Zrotation
												End Site
												{
													OFFSET -1.244579 6.832077 -2.013330
												}
											}
										}
										JOINT L_Finger2
										{
											OFFSET 2.531296 -5.656487 -3.286415
											CHANNELS 3 Xrotation Yrotation Zrotation
											JOINT L_Finger21
											{
												OFFSET 1.991665 -2.402016 -5.957748
												CHANNELS 3 Xrotation Yrotation Zrotation
												End Site
												{
													OFFSET -2.793068 5.800873 -1.944178
												}
											}
										}
										JOINT L_Finger3
										{
											OFFSET 5.474075 -3.302338 -2.655975
											CHANNELS 3 Xrotation Yrotation Zrotation
											JOINT L_Finger31
											{
												OFFSET 2.026943 -1.267532 -5.961166
												CHANNELS 3 Xrotation Yrotation Zrotation
												End Site
												{
													OFFSET -4.375172 4.343658 -1.800320
												}
											}
										}
										JOINT L_Finger4
										{
											OFFSET 4.825745 1.085899 -2.321970
											CHANNELS 3 Xrotation Yrotation Zrotation
											JOINT L_Finger41
											{
												OFFSET 3.358261 -1.829651 -3.744434
												CHANNELS 3 Xrotation Yrotation Zrotation
												End Site
												{
													OFFSET -3.843296 2.955200 -2.267633
												}
											}
										}
									}
								}
							}
						}
						JOINT R_Clavicle
						{
							OFFSET -4.567111 -11.666092 -3.750036
							CHANNELS 3 Xrotation Yrotation Zrotation
							JOINT R_UpperArm
							{
								OFFSET -20.725670 -0.000031 0.000038
								CHANNELS 3 Xrotation Yrotation Zrotation
								JOINT R_Forearm
								{
									OFFSET -5.265285 -0.585762 -20.155655
									CHANNELS 3 Xrotation Yrotation Zrotation
									JOINT R_Hand
									{
										OFFSET -2.653147 -10.877739 -16.383663
										CHANNELS 3 Xrotation Yrotation Zrotation
										JOINT R_Finger0
										{
											OFFSET 4.206116 -4.328888 -5.034388
											CHANNELS 3 Xrotation Yrotation Zrotation
											JOINT R_Finger01
											{
												OFFSET -0.084324 -1.788544 -4.181051
												CHANNELS 3 Xrotation Yrotation Zrotation
												End Site
												{
													OFFSET -3.261890 3.094666 -0.685791
												}
											}
										}
										JOINT R_Finger1
										{
											OFFSET 1.039101 -6.775711 -3.499994
											CHANNELS 3 Xrotation Yrotation Zrotation
											JOINT R_Finger11
											{
												OFFSET -1.320374 -3.040672 -6.425779
												CHANNELS 3 Xrotation Yrotation Zrotation
												End Site
												{
													OFFSET 1.244556 6.832077 -2.013342
												}
											}
										}
										JOINT R_Finger2
										{
											OFFSET -2.531307 -5.656464 -3.286409
											CHANNELS 3 Xrotation Yrotation Zrotation
											JOINT R_Finger21
											{
												OFFSET -1.991707 -2.402016 -5.957708
												CHANNELS 3 Xrotation Yrotation Zrotation
												End Site
												{
													OFFSET 2.793037 5.800858 -1.944197
												}
											}
										}
										JOINT R_Finger3
										{
											OFFSET -5.474091 -3.302330 -2.655947
											CHANNELS 3 Xrotation Yrotation Zrotation
											JOINT R_Finger31
											{
												OFFSET -2.026993 -1.267532 -5.961157
												CHANNELS 3 Xrotation Yrotation Zrotation
												End Site
												{
													OFFSET 4.375156 4.343674 -1.800358
												}
											}
										}
										JOINT R_Finger4
										{
											OFFSET -4.825756 1.085922 -2.321926
											CHANNELS 3 Xrotation Yrotation Zrotation
											JOINT R_Finger41
											{
												OFFSET -3.358307 -1.829651 -3.744390
												CHANNELS 3 Xrotation Yrotation Zrotation
												End Site
												{
													OFFSET 3.843273 2.955208 -2.267666
												}
											}
										}
									}
								}
							}
						}
					}
				}
			}
		}
		JOINT Tail01
		{
			OFFSET -0.000010 10.922326 -0.017508
			CHANNELS 3 Xrotation Yrotation Zrotation
			JOINT Tail02
			{
				OFFSET -0.000022 21.986111 0.000013
				CHANNELS 3 Xrotation Yrotation Zrotation
				JOINT Tail03
				{
					OFFSET -0.000022 21.986118 0.000002
					CHANNELS 3 Xrotation Yrotation Zrotation
					JOINT Tail04
					{
						OFFSET -0.000022 21.986122 0.000004
						CHANNELS 3 Xrotation Yrotation Zrotation
						JOINT Tail05
						{
							OFFSET -0.000022 21.986099 0.000010
							CHANNELS 3 Xrotation Yrotation Zrotation
							JOINT Tail06
							{
								OFFSET -0.000022 21.986099 0.000006
								CHANNELS 3 Xrotation Yrotation Zrotation
								JOINT Tail07
								{
									OFFSET -0.000022 21.986099 0.000000
									CHANNELS 3 Xrotation Yrotation Zrotation
									JOINT Tail08
									{
										OFFSET -0.000022 21.984848 0.000050
										CHANNELS 3 Xrotation Yrotation Zrotation
										JOINT Tail09
										{
											OFFSET -0.000025 21.926025 -1.606211
											CHANNELS 3 Xrotation Yrotation Zrotation
											JOINT Tail10
											{
												OFFSET -0.000027 21.750092 -3.203882
												CHANNELS 3 Xrotation Yrotation Zrotation
												End Site
												{
													OFFSET -0.000036 4.767395 21.461668
												}
											}
										}
									}
								}
							}
						}
					}
				}
			}
		}
		JOINT L_Thigh
		{
			OFFSET 24.788780 0.000021 -0.000034
			CHANNELS 3 Xrotation Yrotation Zrotation
			JOINT L_Calf
			{
				OFFSET 4.720837 4.161326 -21.049969
				CHANNELS 3 Xrotation Yrotation Zrotation
				JOINT L_Foot
				{
					OFFSET 2.154160 21.114433 -11.949743
					CHANNELS 3 Xrotation Yrotation Zrotation
					JOINT L_Toe0
					{
						OFFSET 4.557564 9.251841 -8.735286
						CHANNELS 3 Xrotation Yrotation Zrotation
						End Site
						{
							OFFSET 4.555542 -12.646044 1.018752
						}
					}
					JOINT L_Toe1
					{
						OFFSET 2.346291 5.845602 -11.687160
						CHANNELS 3 Xrotation Yrotation Zrotation
						End Site
						{
							OFFSET 5.347954 -12.298279 1.365644
						}
					}
					JOINT L_Toe2
					{
						OFFSET -0.356020 3.902458 -12.541145
						CHANNELS 3 Xrotation Yrotation Zrotation
						End Site
						{
							OFFSET 3.916235 -12.806129 1.542549
						}
					}
					JOINT L_Toe3
					{
						OFFSET -4.603447 3.183935 -12.435249
						CHANNELS 3 Xrotation Yrotation Zrotation
						End Site
						{
							OFFSET 3.810858 -12.587427 2.957583
						}
					}
					JOINT L_Toe4
					{
						OFFSET -7.144358 6.231495 -10.072764
						CHANNELS 3 Xrotation Yrotation Zrotation
						End Site
						{
							OFFSET 3.810858 -12.587425 2.957585
						}
					}
				}
			}
		}
		JOINT R_Thigh
		{
			OFFSET -24.788780 -0.000024 0.000034
			CHANNELS 3 Xrotation Yrotation Zrotation
			JOINT R_Calf
			{
				OFFSET -4.720922 4.161324 -21.049952
				CHANNELS 3 Xrotation Yrotation Zrotation
				JOINT R_Foot
				{
					OFFSET -2.154238 21.114414 -11.949730
					CHANNELS 3 Xrotation Yrotation Zrotation
					JOINT R_Toe0
					{
						OFFSET -4.557598 9.251823 -8.735270
						CHANNELS 3 Xrotation Yrotation Zrotation
						End Site
						{
							OFFSET -4.555508 -12.646051 1.018756
						}
					}
					JOINT R_Toe1
					{
						OFFSET -2.346325 5.845589 -11.687157
						CHANNELS 3 Xrotation Yrotation Zrotation
						End Site
						{
							OFFSET -5.347919 -12.298286 1.365654
						}
					}
					JOINT R_Toe2
					{
						OFFSET 0.355980 3.902462 -12.541145
						CHANNELS 3 Xrotation Yrotation Zrotation
						End Site
						{
							OFFSET -3.916199 -12.806131 1.542559
						}
					}
					JOINT R_Toe3
					{
						OFFSET 4.603411 3.183941 -12.435266
						CHANNELS 3 Xrotation Yrotation Zrotation
						End Site
						{
							OFFSET -3.810825 -12.587429 2.957591
						}
					}
					JOINT R_Toe4
					{
						OFFSET 7.144323 6.231503 -10.072779
						CHANNELS 3 Xrotation Yrotation Zrotation
						End Site
						{
							OFFSET -3.810825 -12.587433 2.957584
						}
					}
				}
			}
		}
	}
}
MOTION
Frames: 4
Frame Time: 0.033333
-0.000002 -25.408857 32.579807 -18.950713 -0.000048 0.000066 9.476534 -0.372272 -13.174838 -3.539411 -1.989313 -0.749169 -0.644982 1.151438 5.249765 6.313506 2.154775 7.069189 10.656693 0.176035 5.040061 -1.171965 -5.441896 11.724885 -11.115183 6.664147 2.211691 -10.314846 7.487679 -1.134682 -18.191775 3.388605 0.906803 -0.985552 -0.027870 1.948194 0.000021 -0.000001 0.000001 -0.000007 0.000007 -0.000020 -0.067297 -0.084672 1.270136 0.000002 -0.000003 0.000000 0.000010 0.000012 0.000006 -0.000001 -0.000001 -0.000000 0.000111 0.000067 -0.000002 4.998966 -10.662123 -0.919707 0.000006 -0.000006 -0.000000 0.000000 0.000000 0.000000 0.015002 41.415187 5.220469 81.530827 -43.026060 44.420781 -52.291857 13.177290 -8.703518 -59.105295 -31.461726 12.965508 4.814259 45.237869 32.496831 0.108388 -0.103822 0.046716 31.239882 13.715135 -10.715220 -21.103486 -3.971332 -2.962966 30.256522 6.344416 -6.448663 -32.343278 -14.390355 -8.157531 20.872339 -11.244809 -8.185804 -18.722433 -18.085385 -5.094122 18.635514 -29.682657 -0.393825 0.555237 0.804612 0.101795 -0.003005 -25.477012 -32.314445 27.402089 39.879094 28.458369 -31.089764 -6.891935 6.651458 -64.965604 12.658338 18.866523 4.813878 -45.237818 -32.497128 0.108390 0.103822 -0.046712 31.239926 -13.715161 10.714983 -21.103478 3.971279 2.963138 30.256563 -6.344445 6.448430 -32.343302 14.390252 8.157746 20.872423 11.244831 8.185629 -18.722465 18.085327 5.094265 18.635548 29.682657 0.393685 0.555248 -0.804609 -0.101813 -3.503398 9.907560 -17.434401 -0.108644 9.306140 -13.282720 8.283291 0.103494 10.208176 8.226629 -1.264331 7.658358 9.560502 1.790863 13.414293 4.876864 3.828683 15.742556 -2.176930 2.572437 14.473582 -3.098492 1.054102 15.783170 -4.467628 1.222910 18.723145 -3.492172 3.649402 17.986743 15.164620 -10.426483 16.262255 14.040895 0.784339 3.150577 -84.218418 -24.366830 5.343589 -2.318591 -4.298938 -0.446776 8.087297 0.872402 0.413572 17.133832 6.636278 3.687459 20.253543 6.370513 -9.434376 -1.696108 7.323588 -8.103838 8.164108 11.484668 8.045565 24.246897 -1.827334 -5.280020 -95.899367 21.628842 1.092448 -2.318610 4.298938 0.446769 8.087302 -0.872381 -0.413609 17.133837 -6.636254 -3.687513 20.253548 -6.370491 9.434315 -1.696091 -7.323606 8.103847 
-0.000002 -27.512451 33.594452 -13.958174 -0.000037 0.000072 3.969347 -0.082915 -12.952183 1.063995 -1.423707 -0.957553 0.072905 1.227692 5.164715 7.058347 2.326017 7.470725 10.788946 0.082345 5.845145 -1.627862 -3.975400 11.835401 -12.419647 7.499462 0.733715 -11.212731 6.458959 0.257037 -16.411416 3.185927 1.394315 -0.129581 -0.001643 2.567130 0.000019 0.000000 -0.000001 -0.000004 0.000007 -0.000017 -0.062658 -0.078720 1.181511 0.000001 -0.000001 -0.000001 0.000010 0.000005 0.000006 -0.000001 -0.000000 -0.000002 0.000112 0.000069 -0.000010 4.834956 -10.390533 -0.908491 0.000006 -0.000007 -0.000004 0.000000 -0.000000 0.000002 0.004940 25.958609 5.025731 68.792736 -36.919010 19.718281 -59.510748 15.408227 -8.849296 -60.823183 -36.155135 5.054684 4.814248 45.237873 32.496828 0.108382 -0.103821 0.046718 31.239885 13.715133 -10.715217 -21.103485 -3.971333 -2.962967 30.256526 6.344416 -6.448659 -32.343278 -14.390351 -8.157531 20.872339 -11.244814 -8.185807 -18.722435 -18.085397 -5.094120 18.635512 -29.682660 -0.393824 0.555235 0.804620 0.101799 -0.003025 -25.477014 -32.314451 41.662737 44.418687 13.484208 -52.750524 -13.319228 8.721783 -60.136564 14.302309 22.037916 4.813881 -45.237818 -32.497132 0.108394 0.103815 -0.046710 31.239929 -13.715164 10.714981 -21.103485 3.971279 2.963140 30.256567 -6.344445 6.448430 -32.343302 14.390254 8.157746 20.872423 11.244830 8.185627 -18.722471 18.085332 5.094267 18.635546 29.682660 0.393686 0.555246 -0.804609 -0.101807 -5.097815 8.722790 -14.917874 -1.610361 8.009981 -10.798602 8.410505 1.814527 4.384718 9.778937 -0.665679 0.810321 12.305785 2.200540 8.355138 7.806204 5.177302 14.536478 -0.632912 4.215857 16.397488 -3.440522 2.624610 18.514831 -5.919625 2.371921 21.164637 -5.147778 3.996240 20.323364 21.804901 -8.756589 19.488514 3.822465 0.136421 0.874443 -80.208353 -24.303183 5.533446 -2.318594 -4.298936 -0.446777 8.087298 0.872406 0.413575 17.133832 6.636282 3.687455 20.253539 6.370514 -9.434380 -1.696111 7.323593 -8.103840 14.846388 12.445369 4.156760 14.163657 -0.794557 -3.177223 -91.588233 21.373649 0.621079 -2.318608 4.298946 0.446766 8.087304 -0.872375 -0.413614 17.133844 -6.636250 -3.687515 20.253553 -6.370487 9.434306 -1.696086 -7.323596 8.103843 
-0.000002 -28.853533 34.815159 -9.087921 -0.000023 0.000070 -0.736395 0.151155 -12.473005 4.653687 -0.960409 -0.960029 0.820363 1.181974 4.911890 7.821509 2.293636 7.565953 10.858241 -0.109562 6.359627 -1.869015 -1.078985 10.929817 -14.634995 8.056124 -2.037168 -13.214130 3.588987 3.020581 -16.367631 2.973924 1.515762 -0.372275 0.026414 2.614210 0.000018 -0.000000 -0.000001 -0.000008 0.000005 -0.000015 -0.057782 -0.072493 1.088677 0.000002 -0.000001 0.000001 0.000013 0.000005 0.000009 -0.000003 -0.000001 -0.000000 0.000109 0.000068 -0.000007 4.232729 -9.304123 -0.873722 0.000003 -0.000008 -0.000000 0.000000 0.000000 -0.000002 0.000630 10.502001 4.826722 56.362106 -27.929400 -3.629597 -59.241318 15.325123 -8.849075 -65.683880 -38.285082 -1.979021 4.814246 45.237873 32.496835 0.108386 -0.103823 0.046719 31.239885 13.715135 -10.715220 -21.103483 -3.971332 -2.962967 30.256515 6.344420 -6.448661 -32.343288 -14.390353 -8.157532 20.872336 -11.244811 -8.185813 -18.722428 -18.085397 -5.094126 18.635514 -29.682653 -0.393831 0.555236 0.804620 0.101800 -0.003026 -25.477012 -32.314451 53.718902 46.266510 -0.228130 -69.018986 -18.304441 8.598860 -57.519653 14.659879 23.561904 4.813875 -45.237815 -32.497128 0.108398 0.103819 -0.046711 31.239926 -13.715162 10.714980 -21.103483 3.971283 2.963138 30.256570 -6.344445 6.448429 -32.343306 14.390252 8.157745 20.872416 11.244831 8.185622 -18.722467 18.085330 5.094269 18.635546 29.682657 0.393684 0.555244 -0.804606 -0.101806 -6.677107 7.209463 -11.940107 -3.072368 6.389186 -7.856216 7.456917 3.156012 -0.516355 10.487989 0.030231 -6.370381 14.668683 2.395195 1.843886 11.141911 6.369492 11.387896 1.848989 6.058403 16.998589 -2.892522 4.413618 20.923871 -6.898621 3.856686 23.684615 -6.715232 4.829829 22.503211 25.986389 -7.655842 22.170261 -5.107979 -0.090727 -1.178435 -75.709409 -23.895012 5.840001 -2.318594 -4.298938 -0.446774 8.087296 0.872399 0.413575 17.133830 6.636276 3.687461 20.253543 6.370514 -9.434379 -1.696108 7.323590 -8.103840 19.850545 12.643682 0.083256 4.253570 -0.155459 -0.972487 -86.388157 20.986125 0.144874 -2.318612 4.298943 0.446771 8.087300 -0.872376 -0.413608 17.133837 -6.636250 -3.687513 20.253546 -6.370483 9.434316 -1.696090 -7.323598 8.103846 
-0.000002 -29.139336 36.075573 -4.801623 -0.000012 0.000071 -3.697096 0.282687 -11.821928 5.911261 -0.745628 -0.637763 1.510477 0.968640 4.555901 8.508116 1.978448 7.338605 10.832534 -0.436438 6.401078 -2.044222 1.742529 9.846061 -16.722557 8.505623 -4.683988 -12.196655 0.605030 5.608852 -16.348937 2.770330 1.546292 -0.677837 0.063160 2.554295 0.000020 -0.000000 -0.000002 -0.000005 0.000007 -0.000018 -0.052728 -0.066057 0.992596 0.000002 -0.000002 -0.000000 0.000009 0.000009 0.000005 0.000001 0.000001 -0.000003 0.000110 0.000068 -0.000009 3.738071 -8.306433 -0.820541 0.000003 -0.000002 -0.000002 -0.000000 -0.000001 -0.000001 0.000336 9.303014 6.269202 56.804583 -30.398399 -6.207233 -69.196810 18.357155 -8.588972 -62.335435 -41.984824 -3.833975 4.814255 45.237866 32.496831 0.108385 -0.103819 0.046718 31.239885 13.715133 -10.715217 -21.103473 -3.971333 -2.962966 30.256526 6.344420 -6.448661 -32.343285 -14.390350 -8.157526 20.872336 -11.244811 -8.185813 -18.722428 -18.085395 -5.094122 18.635515 -29.682653 -0.393834 0.555235 0.804615 0.101798 -0.003024 -25.477015 -32.314448 61.337332 47.799136 -11.169014 -79.882184 -21.445939 7.708579 -55.459715 14.695640 22.129219 4.813878 -45.237818 -32.497128 0.108394 0.103819 -0.046711 31.239933 -13.715168 10.714982 -21.103483 3.971282 2.963138 30.256567 -6.344445 6.448435 -32.343306 14.390251 8.157748 20.872419 11.244832 8.185633 -18.722469 18.085330 5.094268 18.635544 29.682660 0.393681 0.555244 -0.804608 -0.101808 -8.174406 5.724349 -9.213077 -4.457506 4.803527 -5.162456 4.862367 3.796010 -4.360480 9.919508 1.020743 -11.773742 16.127146 2.631957 -4.536950 14.571922 6.995722 5.637081 5.619538 7.906884 14.555154 -1.120127 6.561331 21.996691 -7.297036 5.626650 26.105053 -8.087952 6.022202 25.076944 25.887578 -7.867694 23.735797 -9.638379 -0.083095 -2.226600 -72.406781 -23.059229 6.022432 -2.318589 -4.298942 -0.446774 8.087299 0.872399 0.413574 17.133833 6.636276 3.687461 20.253545 6.370512 -9.434371 -1.696107 7.323585 -8.103839 21.494464 12.112352 -3.271313 -3.262364 0.070063 0.751819 -81.500139 20.405871 -0.169841 -2.318609 4.298952 0.446772 8.087305 -0.872372 -0.413613 17.133837 -6.636252 -3.687514 20.253557 -6.370485 9.434310 -1.696089 -7.323596 8.103845 
